<svg xmlns="http://www.w3.org/2000/svg" xmlns:xlink="http://www.w3.org/1999/xlink" width="54" height="54" viewBox="0 0 54 54">
  <defs>
    <linearGradient id="linear-gradient" x1="0.88" y1="1.156" x2="0.214" y2="-0.055" gradientUnits="objectBoundingBox">
      <stop offset="0" stop-color="#1cb2e2"/>
      <stop offset="1" stop-color="#5be3ff"/>
    </linearGradient>
  </defs>
  <path id="fingerprint" d="M27.408,53.843a.877.877,0,0,1-.244-1.25A34.286,34.286,0,0,0,33.312,36.8a.933.933,0,0,1,1.039-.793.91.91,0,0,1,.825,1,36.033,36.033,0,0,1-6.464,16.606.947.947,0,0,1-.775.391A.958.958,0,0,1,27.408,53.843Zm-7.47-.884a.911.911,0,0,1-.081-1.271A28.557,28.557,0,0,0,26.3,27.259a.9.9,0,0,1,.695-1.06.889.889,0,0,1,1.045.7A30.362,30.362,0,0,1,21.19,52.877a.88.88,0,0,1-1.252.082Zm15.779-1.5a.826.826,0,0,1-.438-1.151,37.537,37.537,0,0,0,2.942-7.123.961.961,0,0,1,1.165-.609.854.854,0,0,1,.673,1.054,39.067,39.067,0,0,1-3.069,7.432.963.963,0,0,1-.855.484A1.035,1.035,0,0,1,35.716,51.458Zm-22.384-1.83a.886.886,0,0,1,.041-1.257,21.623,21.623,0,0,0,6.733-18.726.894.894,0,0,1,1.772-.239A23.4,23.4,0,0,1,14.6,49.669a.9.9,0,0,1-1.264-.041Zm32.3-3.842a.892.892,0,0,1-.607-1.086,48.874,48.874,0,0,0,1.443-15.119.879.879,0,0,1,.8-.943.86.86,0,0,1,.907.832,50.671,50.671,0,0,1-1.5,15.687.863.863,0,0,1-.827.661A.821.821,0,0,1,45.635,45.787ZM7.563,45.5a.849.849,0,0,1,.123-1.212,14.871,14.871,0,0,0,4.522-6.1.888.888,0,0,1,1.14-.491.857.857,0,0,1,.5,1.115A16.623,16.623,0,0,1,8.8,45.624.9.9,0,0,1,7.563,45.5ZM40.113,40.9a.91.91,0,0,1-.747-1.045,41.919,41.919,0,0,0-.28-15.088c0-.019-.006-.04-.009-.059A12.216,12.216,0,0,0,15.113,29.46a.919.919,0,0,1,.045.151A17.41,17.41,0,0,1,15.4,34.9a.9.9,0,1,1-1.8-.194,15.518,15.518,0,0,0-.191-4.582.939.939,0,0,1-.045-.153,14.107,14.107,0,0,1,10.975-16.6A14.024,14.024,0,0,1,40.862,24.4c0,.02.007.04.01.059a43.784,43.784,0,0,1,.281,15.684.908.908,0,0,1-.892.762A1.021,1.021,0,0,1,40.113,40.9ZM3.471,40.6a.9.9,0,0,1,.1-1.233,8.876,8.876,0,0,0,2.8-8.2.843.843,0,0,1-.032-.118,21.3,21.3,0,0,1-.364-3.142.839.839,0,1,1,1.675-.071,19.268,19.268,0,0,0,.309,2.745,1.125,1.125,0,0,1,.033.12,10.671,10.671,0,0,1-3.333,10,.811.811,0,0,1-.542.209A.822.822,0,0,1,3.471,40.6Zm30.8-7.053a.9.9,0,0,1-.914-.887,33.891,33.891,0,0,0-.707-6.77,1.059,1.059,0,0,1-.016-.107,5.527,5.527,0,0,0-2.418-3.434,5.819,5.819,0,0,0-4.3-.82,5.642,5.642,0,0,0-4.471,4.324.914.914,0,0,1-1.082.688.89.89,0,0,1-.707-1.053,7.446,7.446,0,0,1,5.9-5.7,7.671,7.671,0,0,1,5.669,1.084,7.292,7.292,0,0,1,3.222,4.667,1,1,0,0,1,.015.114,35.581,35.581,0,0,1,.72,7.007.9.9,0,0,1-.912.891ZM.858,32.872c-.09-.344-.171-.69-.248-1.04a.792.792,0,0,1-.038-.09A24.812,24.812,0,0,1,3.121,14.393a.975.975,0,0,1,1.273-.386A.861.861,0,0,1,4.805,15.2,23.163,23.163,0,0,0,2.417,31.332a.49.49,0,0,1,.027.059c.076.356.161.709.253,1.057A.886.886,0,0,1,2,33.521a1.036,1.036,0,0,1-.227.025A.938.938,0,0,1,.858,32.872Zm52.208-4.235a.908.908,0,0,1-.9-.919,25.13,25.13,0,0,0-.492-5.431c-.006-.023-.021-.042-.025-.067A25.119,25.119,0,0,0,41.3,6.55a.9.9,0,0,1-.223-1.256.918.918,0,0,1,1.271-.22A26.9,26.9,0,0,1,53.423,21.785c.008.027.027.048.032.075A27.092,27.092,0,0,1,54,27.752a.909.909,0,0,1-.912.885Zm-7.411-3.208c-.115-.764-.256-1.556-.419-2.356a.821.821,0,0,1-.021-.081A18.769,18.769,0,0,0,23.121,8.672,18.408,18.408,0,0,0,8.341,23.478.9.9,0,0,1,7.3,24.2a.886.886,0,0,1-.736-1.021,20.182,20.182,0,0,1,16.2-16.232c11.087-2.18,21.928,4.82,24.207,15.615.009.028.016.057.022.085.176.859.329,1.709.453,2.529a.886.886,0,0,1-.764,1,.818.818,0,0,1-.132.01A.9.9,0,0,1,45.655,25.429ZM5.279,12.1a.871.871,0,0,1-.2-1.233,27.349,27.349,0,0,1,33.686-8.16A.873.873,0,0,1,39.18,3.89a.907.907,0,0,1-1.205.4A25.525,25.525,0,0,0,6.537,11.91a.912.912,0,0,1-1.258.193Z" transform="translate(0 0)" fill="url(#linear-gradient)"/>
</svg>
