<svg xmlns="http://www.w3.org/2000/svg" viewBox="0 0 44.895 44.27">
  <defs>
    <style>
      .cls-1 {
        fill: #fff;
      }
    </style>
  </defs>
  <g id="family_1_" data-name="family (1)" transform="translate(0 -3.56)">
    <g id="Group_63" data-name="Group 63" transform="translate(0 3.56)">
      <path id="Path_242" data-name="Path 242" class="cls-1" d="M104.679,247.005a.877.877,0,0,0-.609,1.507,3.017,3.017,0,0,0,4.159,0,.877.877,0,1,0-1.219-1.261,1.249,1.249,0,0,1-1.722,0A.873.873,0,0,0,104.679,247.005Z" transform="translate(-94.7 -225.659)"/>
      <path id="Path_243" data-name="Path 243" class="cls-1" d="M44.869,119.658a.877.877,0,0,0-.576-1.043c-2.077-.686-4.553-2.233-4.553-5.707v-1.839a10.1,10.1,0,0,0-1.931-6.6,6.525,6.525,0,0,0-5.214-2.28,6.509,6.509,0,0,0-5.118,2.271,10.04,10.04,0,0,0-2.027,6.606v1.839a5.356,5.356,0,0,1-2.247,4.549,5.608,5.608,0,0,0-6.35,3.525c-.234-.066-1.461-.4-1.823-.5V119.9a7.522,7.522,0,0,0,3.937-6.608v-3.482a7.517,7.517,0,1,0-15.034,0v3.482A7.522,7.522,0,0,0,7.869,119.9v.584c-.362.106-.738.208-1.128.313-2.97.8-6.667,1.8-6.741,6.329v7.685a.877.877,0,0,0,.877.877H12.733v1.247s0,0,0,.006a.877.877,0,0,0,.877.877h4.551a.877.877,0,1,0,0-1.754H14.487v-.525a5.114,5.114,0,0,1,.248-1.6c.552-1.58,1.979-2,3.923-2.574l.276-.082a3.3,3.3,0,0,0,3.1,2.17,3.342,3.342,0,0,0,3.242-2.168l.27.079c2.481.732,4.121,1.215,4.171,4.179v.525H26.035a.877.877,0,1,0,0,1.754h4.558a.877.877,0,0,0,.877-.877s0,0,0-.007v-1.247h11.7a.877.877,0,0,0,.877-.877v-7.67s0-.01,0-.014a5.372,5.372,0,0,0-1.585-3.99c1.262-.592,1.958-1.648,2.41-3.473ZM32.594,103.945a4.767,4.767,0,0,1,3.865,1.648,7.892,7.892,0,0,1,1.509,4.775,3.946,3.946,0,0,1-4.592-2.036.885.885,0,0,0-1.565,0,3.945,3.945,0,0,1-4.591,2.036c.2-4.037,2.178-6.423,5.373-6.423ZM27.2,112.139a7.887,7.887,0,0,0,1.088.078,5.421,5.421,0,0,0,4.3-1.9,5.421,5.421,0,0,0,4.3,1.9,7.889,7.889,0,0,0,1.088-.078v.769a5.392,5.392,0,1,1-10.783,0v-.769Zm7.219,7.677v1.31a1.826,1.826,0,0,1-3.652,0v-1.309a7.133,7.133,0,0,0,3.652,0Zm-8.044-3.392a7.2,7.2,0,0,0,2.638,2.665v1.39c-.365.107-.743.209-1.134.314l-.547.149a5.654,5.654,0,0,0-2.286-2.754A6.964,6.964,0,0,0,26.378,116.424Zm-7.849,5.085a3.856,3.856,0,0,1,7.36.725,8.782,8.782,0,0,0-7.575,0A3.843,3.843,0,0,1,18.529,121.509Zm-12.843-11.7a5.763,5.763,0,1,1,11.526,0v.907c-2.305.077-5.21-.2-7.352-1.663a.877.877,0,0,0-1.193.192,3.839,3.839,0,0,1-2.981,1.371v-.808Zm0,3.482v-.909a6.119,6.119,0,0,0,3.842-1.472,14.964,14.964,0,0,0,7.685,1.561v.82a5.763,5.763,0,0,1-11.526,0Zm7.59,7.29v.539s0,.005,0,.008a1.826,1.826,0,0,1-3.652,0s0,0,0-.006v-.541a7.51,7.51,0,0,0,3.653,0Zm5.46,8.923c-.192.059-.384.116-.573.171-2.164.638-4.577,1.349-5.248,4.256H6.446v-3.548a.877.877,0,1,0-1.754,0v3.548H1.754v-6.786c.053-2.99,2.092-3.755,5.443-4.658.282-.076.569-.154.854-.235a3.579,3.579,0,0,0,6.795,0c.285.081,1.4.382,1.651.455,0,.084-.006.169-.006.254v1.24a5.605,5.605,0,0,0,2.244,4.486Zm4.979.64s0,0,0,0a1.614,1.614,0,0,1-3.225,0v-.571a5.4,5.4,0,0,0,.655.154,5.6,5.6,0,0,0,1.754.025,5.387,5.387,0,0,0,.816-.179Zm.466-2.693a3.856,3.856,0,0,1-5.933-3.164,7.049,7.049,0,0,1,7.71,0A3.859,3.859,0,0,1,24.181,127.449Zm18.11,6.48H39.352v-3.547a.877.877,0,1,0-1.754,0v3.547H31.289c-.671-2.907-3.084-3.618-5.248-4.256-.189-.055-.381-.112-.573-.171v-.814a5.608,5.608,0,0,0,2.246-4.489v-1.225c0-.106,0-.211-.009-.316l.632-.172c.284-.077.573-.155.861-.236a3.579,3.579,0,0,0,6.795,0c.285.08.572.158.854.234,3.351.9,5.391,1.668,5.444,4.658v6.786Zm-1.727-12.053a20.163,20.163,0,0,0-3.26-1.084c-.39-.105-.766-.206-1.128-.313v-1.392a7.2,7.2,0,0,0,2.631-2.656,8.07,8.07,0,0,0,4.144,3.554A2.513,2.513,0,0,1,40.563,121.876Z" transform="translate(0 -93.543)"/>
      <path id="Path_244" data-name="Path 244" class="cls-1" d="M189.2,14.678a.877.877,0,0,0,1.218,0l4.64-4.479a3.863,3.863,0,0,0-5.249-5.666,3.863,3.863,0,0,0-5.249,5.665Zm-3.478-8.723a2.1,2.1,0,0,1,1.482-.64h.039a2.09,2.09,0,0,1,1.463.588l.495.477a.877.877,0,0,0,1.218,0l.5-.478a2.119,2.119,0,0,1,2.982.053,2.112,2.112,0,0,1-.055,2.983l-4.031,3.891-4.032-3.891a2.114,2.114,0,0,1-.055-2.983Z" transform="translate(-167.306 -3.56)"/>
      <path id="Path_245" data-name="Path 245" class="cls-1" d="M242.894,488.441a.877.877,0,1,0,0,1.754h0a.877.877,0,1,0,0-1.754Z" transform="translate(-220.796 -445.924)"/>
    </g>
  </g>
</svg>
