<svg xmlns="http://www.w3.org/2000/svg" xmlns:xlink="http://www.w3.org/1999/xlink" viewBox="0 0 188.299 147.382">
  <defs>
    <style>
      .cls-1 {
        fill: url(#linear-gradient);
      }

      .cls-2 {
        fill: url(#linear-gradient-5);
      }
    </style>
    <linearGradient id="linear-gradient" x1="0.5" y1="-0.761" x2="0.5" y2="1.594" gradientUnits="objectBoundingBox">
      <stop offset="0" stop-color="#c300eb"/>
      <stop offset="1" stop-color="#ff4d2a"/>
    </linearGradient>
    <linearGradient id="linear-gradient-5" y1="-0.288" x2="0.836" y2="1.127" gradientUnits="objectBoundingBox">
      <stop offset="0" stop-color="#ff4d2a"/>
      <stop offset="1" stop-color="#c300eb"/>
    </linearGradient>
  </defs>
  <g id="Group_83" data-name="Group 83" transform="translate(-4713 -5166.998)">
    <g id="family_1_" data-name="family (1)" transform="translate(4758 5195.44)">
      <g id="Group_82" data-name="Group 82" transform="translate(0 3.56)">
        <path id="Path_246" data-name="Path 246" class="cls-1" d="M105.734,247a1.932,1.932,0,0,0-1.343,3.321,6.647,6.647,0,0,0,9.162,0,1.932,1.932,0,1,0-2.685-2.778,2.752,2.752,0,0,1-3.793,0A1.924,1.924,0,0,0,105.734,247Z" transform="translate(-83.75 -199.978)"/>
        <path id="Path_247" data-name="Path 247" class="cls-1" d="M98.847,140.672a1.932,1.932,0,0,0-1.269-2.3C93,136.862,87.547,133.454,87.547,125.8v-4.052c0-6.249-1.431-11.139-4.255-14.535a14.375,14.375,0,0,0-11.487-5.023,14.339,14.339,0,0,0-11.275,5c-2.922,3.422-4.466,8.455-4.466,14.554V125.8a11.8,11.8,0,0,1-4.95,10.022,12.355,12.355,0,0,0-13.989,7.765c-.516-.145-3.218-.873-4.016-1.107V141.2a16.572,16.572,0,0,0,8.672-14.557v-7.672a16.56,16.56,0,1,0-33.12,0v7.672a16.571,16.571,0,0,0,8.673,14.555v1.287c-.8.234-1.627.458-2.484.69C8.308,144.934.164,147.128,0,157.113v16.93a1.932,1.932,0,0,0,1.932,1.932h26.12v2.747s0,.009,0,.014a1.932,1.932,0,0,0,1.932,1.932H40.009a1.932,1.932,0,1,0,0-3.863H31.915v-1.157a11.266,11.266,0,0,1,.547-3.535c1.215-3.481,4.36-4.408,8.642-5.672l.608-.18a7.277,7.277,0,0,0,6.827,4.78,7.362,7.362,0,0,0,7.143-4.776l.594.175c5.467,1.613,9.079,2.677,9.189,9.207V176.8h-8.11a1.932,1.932,0,0,0,0,3.863H67.4a1.932,1.932,0,0,0,1.932-1.932s0-.01,0-.014v-2.747H95.1a1.932,1.932,0,0,0,1.932-1.932v-16.9c0-.011,0-.021,0-.032a11.835,11.835,0,0,0-3.492-8.789c2.781-1.3,4.313-3.631,5.309-7.651ZM71.806,106.054a10.5,10.5,0,0,1,8.516,3.63c2.009,2.417,3.123,5.953,3.325,10.52-3.578.62-7.789.119-10.117-4.485a1.951,1.951,0,0,0-3.448,0c-2.327,4.6-6.536,5.1-10.113,4.486.447-8.893,4.8-14.15,11.837-14.15ZM59.928,124.107a17.373,17.373,0,0,0,2.4.172,11.943,11.943,0,0,0,9.481-4.187,11.942,11.942,0,0,0,9.481,4.187,17.378,17.378,0,0,0,2.4-.172V125.8a11.878,11.878,0,1,1-23.755,0v-1.695Zm15.9,16.912V143.9a4.023,4.023,0,0,1-8.046,0V141.02a15.714,15.714,0,0,0,8.046,0ZM58.11,133.547a15.865,15.865,0,0,0,5.812,5.871v3.062c-.8.235-1.636.46-2.5.693-.4.107-.8.216-1.206.327a12.456,12.456,0,0,0-5.035-6.067A15.343,15.343,0,0,0,58.11,133.547Zm-17.292,11.2a8.494,8.494,0,0,1,16.215,1.6,19.347,19.347,0,0,0-16.687,0,8.466,8.466,0,0,1,.472-1.6ZM12.526,118.967a12.7,12.7,0,1,1,25.393,0v2c-5.078.17-11.478-.434-16.2-3.664a1.932,1.932,0,0,0-2.628.424c-1.633,2.146-3.685,2.679-6.568,3.021v-1.78Zm0,7.672v-2c3.107-.347,6.033-.915,8.463-3.243,5.286,2.993,11.743,3.6,16.93,3.438v1.807a12.7,12.7,0,0,1-25.393,0ZM29.246,142.7v1.187c0,.006,0,.011,0,.017a4.023,4.023,0,0,1-8.046,0s0-.008,0-.012V142.7a16.545,16.545,0,0,0,8.048,0Zm12.029,19.658c-.423.129-.846.255-1.263.377-4.767,1.406-10.084,2.973-11.561,9.377H14.2V164.3a1.932,1.932,0,1,0-3.863,0v7.816H3.863v-14.95c.116-6.587,4.609-8.272,11.992-10.261.622-.168,1.254-.339,1.882-.517a7.885,7.885,0,0,0,14.969,0c.629.178,3.074.841,3.638,1-.01.185-.014.373-.014.56v2.731a12.349,12.349,0,0,0,4.943,9.883Zm10.968,1.411s0,0,0,.007a3.555,3.555,0,0,1-7.1,0s0,0,0-.005v-1.252a11.886,11.886,0,0,0,1.443.34,12.33,12.33,0,0,0,3.863.056,11.873,11.873,0,0,0,1.8-.394Zm1.028-5.933a8.5,8.5,0,0,1-13.07-6.971,15.529,15.529,0,0,1,16.985,0A8.5,8.5,0,0,1,53.271,157.836Zm39.9,14.275H86.693V164.3a1.932,1.932,0,1,0-3.863,0v7.815h-13.9c-1.479-6.4-6.794-7.97-11.561-9.376-.417-.122-.84-.247-1.263-.377v-1.793a12.354,12.354,0,0,0,4.949-9.888v-2.7c0-.234-.008-.465-.021-.7.467-.129.934-.255,1.393-.379.626-.169,1.262-.341,1.9-.519a7.885,7.885,0,0,0,14.969,0c.629.177,1.26.348,1.882.516,7.383,1.99,11.877,3.675,11.992,10.261v14.95Zm-3.805-26.553a44.421,44.421,0,0,0-7.182-2.388c-.859-.231-1.687-.455-2.485-.689v-3.066a15.865,15.865,0,0,0,5.8-5.852,17.778,17.778,0,0,0,9.129,7.829C93.7,144.082,92.393,145.047,89.362,145.558Z" transform="translate(0 -83.138)"/>
        <path id="Path_248" data-name="Path 248" class="cls-1" d="M196.205,28.053a1.932,1.932,0,0,0,2.683,0l10.222-9.867A8.51,8.51,0,0,0,197.547,5.7a8.509,8.509,0,0,0-11.564,12.481ZM188.543,8.835a4.619,4.619,0,0,1,3.264-1.411h.087a4.6,4.6,0,0,1,3.222,1.3l1.09,1.051a1.932,1.932,0,0,0,2.683,0l1.091-1.052a4.669,4.669,0,0,1,6.57.116,4.653,4.653,0,0,1-.121,6.572l-8.881,8.572-8.882-8.573a4.657,4.657,0,0,1-.122-6.571Z" transform="translate(-147.961 -3.56)"/>
        <path id="Path_249" data-name="Path 249" class="cls-1" d="M243.949,488.441a1.932,1.932,0,1,0,0,3.863h.011a1.932,1.932,0,1,0-.011-3.863Z" transform="translate(-195.266 -394.775)"/>
      </g>
    </g>
    <path id="load_money" data-name="load money" class="cls-2" d="M2,154.381a2,2,0,0,1-2-2V9A2,2,0,0,1,2,7H186.3a2,2,0,0,1,2,2V152.381a2,2,0,0,1-2,2ZM8.187,16.187V145.193a1,1,0,0,0,1,1H179.113a1,1,0,0,0,1-1V16.187a1,1,0,0,0-1-1H9.187A1,1,0,0,0,8.187,16.187Z" transform="translate(4713 5159.999)"/>
  </g>
</svg>
